<svg width="25" height="25" viewBox="0 0 25 25" fill="none" xmlns="http://www.w3.org/2000/svg">
<g id="email 1">
<path id="Vector" d="M3.64584 20.8333C3.22918 20.8333 2.86459 20.6771 2.55209 20.3646C2.23959 20.0521 2.08334 19.6875 2.08334 19.2708V5.72917C2.08334 5.31251 2.23959 4.94792 2.55209 4.63542C2.86459 4.32292 3.22918 4.16667 3.64584 4.16667H21.3542C21.7708 4.16667 22.1354 4.32292 22.4479 4.63542C22.7604 4.94792 22.9167 5.31251 22.9167 5.72917V19.2708C22.9167 19.6875 22.7604 20.0521 22.4479 20.3646C22.1354 20.6771 21.7708 20.8333 21.3542 20.8333H3.64584ZM12.5 12.9688L3.64584 7.16146V19.2708H21.3542V7.16146L12.5 12.9688ZM12.5 11.4063L21.25 5.72917H3.77605L12.5 11.4063ZM3.64584 7.16146V5.72917V19.2708V7.16146Z" fill="#EAEDF7"/>
</g>
</svg>
