<svg width="29" height="29" viewBox="0 0 29 29" fill="none" xmlns="http://www.w3.org/2000/svg">
<g id="github-142-svgrepo-com 1" clip-path="url(#clip0_35_54)">
<g id="Page-1">
<g id="Dribbble-Light-Preview">
<g id="icons">
<path id="github-[#142]" fill-rule="evenodd" clip-rule="evenodd" d="M14.4 0.599998C22.1322 0.599998 28.4 7.0259 28.4 14.9541C28.4 21.2947 24.3932 26.6735 18.8338 28.5733C18.124 28.7147 17.872 28.2665 17.872 27.8843C17.872 27.4111 17.8888 25.8655 17.8888 23.9447C17.8888 22.6063 17.4408 21.7328 16.9382 21.2876C20.056 20.932 23.332 19.7181 23.332 14.2049C23.332 12.6369 22.7888 11.3573 21.89 10.3521C22.0356 9.98955 22.5158 8.52953 21.7528 6.55273C21.7528 6.55273 20.5796 6.16811 17.907 8.02451C16.7884 7.70671 15.59 7.54681 14.4 7.54121C13.21 7.54681 12.013 7.70671 10.8958 8.02451C8.2204 6.16811 7.0444 6.55273 7.0444 6.55273C6.2842 8.52953 6.7644 9.98955 6.9086 10.3521C6.014 11.3573 5.4666 12.6369 5.4666 14.2049C5.4666 19.7041 8.7356 20.9366 11.845 21.2992C11.4446 21.6576 11.082 22.2899 10.956 23.2181C10.158 23.5849 8.13079 24.2197 6.88199 22.0259C6.88199 22.0259 6.14139 20.6467 4.73579 20.5459C4.73579 20.5459 3.37079 20.5278 4.64059 21.4182C4.64059 21.4182 5.55759 21.8592 6.19459 23.5182C6.19459 23.5182 7.0164 26.0801 10.9112 25.2121C10.9182 26.4119 10.9308 27.5427 10.9308 27.8843C10.9308 28.2637 10.6732 28.7077 9.97459 28.5747C4.41099 26.6777 0.399994 21.2961 0.399994 14.9541C0.399994 7.0259 6.66919 0.599998 14.4 0.599998Z" fill="#EAEDF7"/>
</g>
</g>
</g>
</g>
<defs>
<clipPath id="clip0_35_54">
<rect width="28" height="28" fill="white" transform="translate(0.399994 0.599998)"/>
</clipPath>
</defs>
</svg>
