<svg width="28" height="28" viewBox="0 0 28 28" fill="none" xmlns="http://www.w3.org/2000/svg">
<g id="linkedin-svgrepo-com 1" clip-path="url(#clip0_35_69)">
<path id="Vector" d="M23.8583 23.8583H19.7097V17.36C19.7097 15.8106 19.6817 13.8157 17.5513 13.8157C15.3907 13.8157 15.0593 15.505 15.0593 17.2456V23.8583H10.9107V10.4953H14.8937V12.3223H14.9497C15.7617 10.9363 17.2737 10.1057 18.879 10.164C23.0837 10.164 23.8607 12.929 23.8607 16.5293L23.8583 23.8559V23.8583ZM6.23 8.66834C5.59271 8.66527 4.98235 8.41091 4.53149 7.96049C4.08063 7.51007 3.82568 6.89997 3.822 6.26268C3.822 4.94202 4.90933 3.85469 6.23 3.85469C7.55067 3.85469 8.63567 4.94202 8.638 6.26268C8.638 7.58334 7.55067 8.66834 6.23 8.66834ZM8.30433 23.8583H4.151V10.4953H8.30433V23.8583ZM25.9233 3.46807e-05H2.065C1.52402 -0.00310744 1.00365 0.207373 0.616987 0.585737C0.230321 0.964101 0.00859755 1.47977 0 2.02069V25.9793C0.00859755 26.5202 0.230321 27.0359 0.616987 27.4142C1.00365 27.7926 1.52402 28.0031 2.065 27.9999H25.9257C26.4679 28.0043 26.9899 27.7945 27.3784 27.4162C27.7668 27.0378 27.9902 26.5214 28 25.9793V2.01836C27.9902 1.47663 27.7666 0.960731 27.3781 0.583106C26.9895 0.205481 26.4675 -0.00326258 25.9257 0.00236784L25.9233 3.46807e-05Z" fill="#EAEDF7"/>
</g>
<defs>
<clipPath id="clip0_35_69">
<rect width="28" height="28" fill="white"/>
</clipPath>
</defs>
</svg>
