<svg width="35" height="35" viewBox="0 0 35 35" fill="none" xmlns="http://www.w3.org/2000/svg">
<g id="link_FILL0_wght400_GRAD0_opsz48 1">
<path id="Vector" d="M16.4063 24.7917H10.2083C8.19098 24.7917 6.47136 24.0808 5.04948 22.6589C3.62761 21.237 2.91667 19.5174 2.91667 17.5C2.91667 15.4827 3.62761 13.7631 5.04948 12.3412C6.47136 10.9193 8.19098 10.2084 10.2083 10.2084H16.4063V12.3959H10.2083C8.79052 12.3959 7.58537 12.8913 6.59287 13.8821C5.60041 14.8729 5.10417 16.076 5.10417 17.4915C5.10417 18.9069 5.60041 20.1129 6.59287 21.1094C7.58537 22.1059 8.79052 22.6042 10.2083 22.6042H16.4063V24.7917ZM11.849 18.5938V16.4063H23.151V18.5938H11.849ZM18.5938 24.7917V22.6042H24.7917C26.2095 22.6042 27.4146 22.1088 28.4071 21.118C29.3996 20.1272 29.8958 18.9241 29.8958 17.5086C29.8958 16.0932 29.3996 14.8872 28.4071 13.8907C27.4146 12.8941 26.2095 12.3959 24.7917 12.3959H18.5938V10.2084H24.7917C26.809 10.2084 28.5287 10.9193 29.9505 12.3412C31.3724 13.7631 32.0833 15.4827 32.0833 17.5C32.0833 19.5174 31.3724 21.237 29.9505 22.6589C28.5287 24.0808 26.809 24.7917 24.7917 24.7917H18.5938Z" fill="#EAEDF7"/>
</g>
</svg>
