<svg width="25" height="25" viewBox="0 0 25 25" fill="none" xmlns="http://www.w3.org/2000/svg">
<g id="telephone 1">
<path id="Vector" d="M20.7031 21.875C18.5851 21.875 16.48 21.3542 14.388 20.3125C12.296 19.2708 10.4167 17.9167 8.75 16.25C7.08333 14.5833 5.72917 12.704 4.6875 10.612C3.64583 8.51997 3.125 6.41493 3.125 4.29688C3.125 3.96205 3.23661 3.68303 3.45982 3.45982C3.68303 3.23661 3.96205 3.125 4.29688 3.125H7.94271C8.17901 3.125 8.39 3.20747 8.57568 3.3724C8.76134 3.53733 8.88021 3.75868 8.93229 4.03646L9.63542 7.31771C9.67014 7.56076 9.6658 7.78212 9.6224 7.98177C9.57899 8.18142 9.48785 8.35069 9.34896 8.48958L6.74479 11.1198C7.71701 12.7344 8.80642 14.1406 10.013 15.3385C11.2196 16.5365 12.5868 17.5521 14.1146 18.3854L16.5885 15.8333C16.7622 15.6424 16.9618 15.5078 17.1875 15.4297C17.4132 15.3516 17.6389 15.3385 17.8646 15.3906L20.9635 16.0677C21.2294 16.1263 21.4477 16.2581 21.6186 16.4632C21.7895 16.6683 21.875 16.9097 21.875 17.1875V20.7031C21.875 21.038 21.7634 21.317 21.5402 21.5402C21.317 21.7634 21.038 21.875 20.7031 21.875ZM5.96354 9.6875L8.07292 7.55208L7.47396 4.6875H4.6875C4.6875 5.36458 4.79167 6.10677 5 6.91406C5.20833 7.72135 5.52951 8.64583 5.96354 9.6875ZM15.5729 19.1406C16.2847 19.4705 17.0573 19.7396 17.8906 19.9479C18.724 20.1562 19.5312 20.2778 20.3125 20.3125V17.526L17.6302 16.9792L15.5729 19.1406Z" fill="#EAEDF7"/>
</g>
</svg>
